<svg width="900" height="329" xmlns="http://www.w3.org/2000/svg"><g fill="none" fill-rule="evenodd"><text font-family="YandexSansText-Regular, Yandex Sans Text" font-size="14" letter-spacing="1.7" fill="#000" transform="translate(438 36)"><tspan x="141.327" y="117">&lt;body&gt;</tspan></text><text font-family="YandexSansText-Regular, Yandex Sans Text" font-size="14" letter-spacing="1.7" fill="#000" transform="translate(438 36)"><tspan x=".726" y="117">&lt;head&gt;</tspan></text><text font-family="YandexSansText-Regular, Yandex Sans Text" font-size="14" letter-spacing="1.7" fill="#000" transform="translate(438 36)"><tspan x="2.257" y="181">&lt;title&gt;</tspan></text><text font-family="YandexSansText-Regular, Yandex Sans Text" font-size="14" letter-spacing="1.7" fill="#000" transform="translate(438 36)"><tspan x="201.142" y="181">&lt;header&gt;</tspan></text><text font-family="YandexSansText-Regular, Yandex Sans Text" font-size="14" letter-spacing="1.7" fill="#000" transform="translate(438 36)"><tspan x="81.315" y="181">&lt;sidebar&gt;</tspan></text><path d="M674.5 225.5v40M553 197l57.5-35 57.5 35" stroke="gray" stroke-width="1.5" stroke-linecap="square"/><text font-family="YandexSansText-Regular, Yandex Sans Text" font-size="14" letter-spacing="1.7" fill="#000" transform="translate(438 36)"><tspan x="201.132" y="246">&lt;button&gt;</tspan></text><path stroke="gray" stroke-width="1.5" stroke-linecap="square" d="M472 135l57.5-35 57.5 35"/><text transform="translate(502 80)" fill="#000" font-family="YandexSansText-Regular, Yandex Sans Text" font-size="14" letter-spacing="1.7"><tspan x=".409" y="13">&lt;html&gt;</tspan></text><path d="M466.5 159.5v40" stroke="gray" stroke-width="1.5" stroke-linecap="square"/><text font-family="YandexSansText-Bold, Yandex Sans Text" font-size="20" font-weight="bold" letter-spacing="1.7" fill="#000" transform="translate(438 36)"><tspan x="65.09" y="19">DOM</tspan></text><g><path d="M245.73 186.28l-1.52-1.52-19.74-6.08h-18.22l-18.73 6.08-1.52 1.52h59.73z" fill="#FFF" fill-rule="nonzero"/><path d="M245.73 186.28l-1.52-1.52-19.74-6.08h-18.22l-18.73 6.08-1.52 1.52" stroke="#010202" stroke-width="1.5" stroke-linecap="round" stroke-linejoin="round"/><path d="M202.7 157.42c-1.16.28-1.92 1.39-1.79 2.58l.27 2.48.31.59c.45.91 1.26 1.62 2.23 1.95l-1.02-7.6z" fill="#FFF" fill-rule="nonzero"/><path d="M202.7 157.42c-1.16.28-1.92 1.39-1.79 2.58l.27 2.48.31.59c.45.91 1.26 1.62 2.23 1.95" stroke="#010202" stroke-width="1.5" stroke-linecap="round" stroke-linejoin="round"/><path d="M228.011 157.42c1.17.28 1.93 1.39 1.8 2.58l-.28 2.48-.3.59c-.46.91-1.27 1.62-2.23 1.95l1.01-7.6z" fill="#FFF" fill-rule="nonzero"/><path d="M228.011 157.42c1.17.28 1.93 1.39 1.8 2.58l-.28 2.48-.3.59c-.46.91-1.27 1.62-2.23 1.95" stroke="#010202" stroke-width="1.5" stroke-linecap="round" stroke-linejoin="round"/><path d="M206.248 171.09v6.07c0 5.04 4.07 9.12 9.11 9.12 5.04 0 9.11-4.08 9.11-9.12v-6.07h-18.22z" fill="#FFF" fill-rule="nonzero"/><path d="M206.248 171.09v6.07c0 5.04 4.07 9.12 9.11 9.12 5.04 0 9.11-4.08 9.11-9.12v-6.07" stroke="#010202" stroke-width="1.5" stroke-linecap="round" stroke-linejoin="round"/><g fill-rule="nonzero"><path d="M229.022 149.835v1.01l-1.49 9.62h-.02s1.21-8.56-5.57-8.61c-7.19 0-12.66-3.54-12.66-3.54-4.5 1.49-5.57 4.55-5.57 4.55l-.5 3.55-.1 3.54-1.42-9.11v-1.01c0-3.65 1.59-6.94 4.1-9.32s5.92-3.85 9.57-3.85c7.26 0 13.66 5.9 13.66 13.17z" fill="#FFCC09"/><path d="M227.534 160.456l-.48 3.09c-.38 3.27-1.65 6.35-3.7 8.94l-2.98 3.77a4.987 4.987 0 0 1-3.9 1.9h-2.25c-1.52 0-2.97-.71-3.9-1.9l-2.99-3.77a17.895 17.895 0 0 1-3.69-8.94l-.56-3.59.13-3.55.5-3.54s1.07-3.06 5.57-4.55c0 0 5.47 3.54 12.66 3.54 6.78.05 5.56 8.6 5.56 8.6h.03z" fill="#FFF"/></g><path d="M203.082 159.951l.56 3.62a17.63 17.63 0 0 0 3.69 8.94l2.99 3.77c.94 1.19 2.38 1.9 3.9 1.9h2.28c1.51 0 2.96-.71 3.89-1.9l2.99-3.77c2.05-2.59 3.32-5.67 3.7-8.94l.48-3.09 1.49-9.61v-1.02c0-7.26-6.4-13.16-13.67-13.16-3.64 0-7.06 1.47-9.56 3.85-2.51 2.38-4.13 5.64-4.13 9.29v1.01l1.39 9.11z" stroke="#010202" stroke-linecap="round" stroke-linejoin="round" stroke-width="1.5"/><path d="M227.51 160.465s1.21-8.56-5.57-8.61c-7.19 0-12.65-3.54-12.65-3.54-4.51 1.49-5.57 4.55-5.57 4.55l-.51 3.55-.1 3.54 24.4.51z"/><path d="M227.51 160.465s1.21-8.56-5.57-8.61c-7.19 0-12.65-3.54-12.65-3.54-4.51 1.49-5.57 4.55-5.57 4.55l-.51 3.55-.1 3.54" stroke="#010202" stroke-width="1.5" stroke-linecap="round" stroke-linejoin="round"/><g><path d="M206.248 154.896h6.07c1.12 0 2.03.91 2.03 2.02v8.61h3.04l-11.14-10.63z" fill="#FFF" fill-rule="nonzero"/><path d="M206.248 154.896h6.07c1.12 0 2.03.91 2.03 2.02v8.61h3.04" stroke="#010202" stroke-width="1.5" stroke-linecap="round" stroke-linejoin="round"/></g><g stroke="#010202" stroke-linecap="round" stroke-linejoin="round" stroke-width="1.5"><path d="M217.89 154.896h6.58"/></g><g><path d="M211.31 169.572l.73.25c.51.18 1.07.26 1.6.26h3.42c.53 0 1.08-.08 1.59-.26l.73-.25h-8.07z" fill="#FFF" fill-rule="nonzero"/><path d="M211.31 169.572l.73.25c.51.18 1.07.26 1.6.26h3.42c.53 0 1.08-.08 1.59-.26l.73-.25" stroke="#010202" stroke-width="1.5" stroke-linecap="round" stroke-linejoin="round"/></g><g stroke="#010202" stroke-linecap="round" stroke-linejoin="round" stroke-width="1.5"><path d="M213.84 173.12h3.04"/></g><g stroke="#010202" stroke-linecap="round" stroke-linejoin="round" stroke-width="1.5"><path d="M208.778 158.44h1.52"/></g><g stroke="#010202" stroke-linecap="round" stroke-linejoin="round" stroke-width="1.5"><path d="M220.42 158.44h1.52"/></g></g><g><path d="M335.1 150.05h-28.72v23.5h28.72v13.06l24.81-24.81L335.1 137z" fill="#FFF" fill-rule="nonzero" stroke="gray" stroke-width="1.5"/><text font-family="YandexSansText-Bold, Yandex Sans Text" font-size="20" font-weight="bold" letter-spacing="1.7" fill="#000" transform="translate(278 93)"><tspan x=".83" y="19">JavaScript</tspan></text></g></g></svg>